<svg xmlns="http://www.w3.org/2000/svg" width="1200" height="630" viewBox="0 0 1200 630" role="img" aria-labelledby="title desc">
  <title id="title">Aritra Saha — Software Developer and AI Engineer</title>
  <desc id="desc">Social preview image for Aritra Saha's personal portfolio.</desc>
  <defs>
    <linearGradient id="bg" x1="0" y1="0" x2="1" y2="1">
      <stop offset="0" stop-color="#0a0a0f"/>
      <stop offset="0.58" stop-color="#12121a"/>
      <stop offset="1" stop-color="#211d52"/>
    </linearGradient>
    <radialGradient id="glow" cx="78%" cy="22%" r="60%">
      <stop offset="0" stop-color="#6c63ff" stop-opacity="0.52"/>
      <stop offset="0.42" stop-color="#6c63ff" stop-opacity="0.18"/>
      <stop offset="1" stop-color="#6c63ff" stop-opacity="0"/>
    </radialGradient>
    <filter id="shadow" x="-20%" y="-20%" width="140%" height="140%">
      <feDropShadow dx="0" dy="18" stdDeviation="26" flood-color="#000" flood-opacity="0.36"/>
    </filter>
  </defs>
  <rect width="1200" height="630" fill="url(#bg)"/>
  <rect width="1200" height="630" fill="url(#glow)"/>
  <path d="M-60 526C128 426 232 470 388 384C536 302 602 164 772 156C936 148 1022 250 1260 126" fill="none" stroke="#6c63ff" stroke-width="2" stroke-opacity="0.22"/>
  <g filter="url(#shadow)">
    <rect x="84" y="88" width="1032" height="454" rx="34" fill="#12121a" stroke="#2b2b42"/>
    <circle cx="128" cy="132" r="8" fill="#f87171"/>
    <circle cx="154" cy="132" r="8" fill="#fbbf24"/>
    <circle cx="180" cy="132" r="8" fill="#34d399"/>
    <text x="84" y="626" fill="#000" opacity="0">Aritra Saha portfolio preview</text>
  </g>
  <g transform="translate(148 188)">
    <text x="0" y="0" fill="#9999aa" font-family="Inter, -apple-system, BlinkMacSystemFont, Segoe UI, sans-serif" font-size="28" font-weight="600" letter-spacing="3">PORTFOLIO</text>
    <text x="0" y="92" fill="#f4f4f8" font-family="Inter, -apple-system, BlinkMacSystemFont, Segoe UI, sans-serif" font-size="76" font-weight="800" letter-spacing="-3">Aritra Saha</text>
    <text x="0" y="154" fill="#6c63ff" font-family="Inter, -apple-system, BlinkMacSystemFont, Segoe UI, sans-serif" font-size="40" font-weight="700">Software Developer &amp; AI Engineer</text>
    <text x="0" y="220" fill="#c7c7d4" font-family="Inter, -apple-system, BlinkMacSystemFont, Segoe UI, sans-serif" font-size="30">Backend systems • AI workflows • Real-time APIs</text>
    <g transform="translate(0 278)">
      <rect width="132" height="42" rx="21" fill="#6c63ff" fill-opacity="0.16" stroke="#6c63ff" stroke-opacity="0.55"/>
      <text x="66" y="28" text-anchor="middle" fill="#eeeef0" font-family="JetBrains Mono, ui-monospace, monospace" font-size="18">Python</text>
      <rect x="152" width="92" height="42" rx="21" fill="#6c63ff" fill-opacity="0.16" stroke="#6c63ff" stroke-opacity="0.55"/>
      <text x="198" y="28" text-anchor="middle" fill="#eeeef0" font-family="JetBrains Mono, ui-monospace, monospace" font-size="18">Go</text>
      <rect x="264" width="156" height="42" rx="21" fill="#6c63ff" fill-opacity="0.16" stroke="#6c63ff" stroke-opacity="0.55"/>
      <text x="342" y="28" text-anchor="middle" fill="#eeeef0" font-family="JetBrains Mono, ui-monospace, monospace" font-size="18">FastAPI</text>
      <rect x="440" width="118" height="42" rx="21" fill="#6c63ff" fill-opacity="0.16" stroke="#6c63ff" stroke-opacity="0.55"/>
      <text x="499" y="28" text-anchor="middle" fill="#eeeef0" font-family="JetBrains Mono, ui-monospace, monospace" font-size="18">ML</text>
    </g>
  </g>
  <g transform="translate(873 208)">
    <path d="M120 18C62 18 18 82 18 82s44 64 102 64 102-64 102-64S178 18 120 18Z" fill="none" stroke="#6c63ff" stroke-width="12" stroke-linecap="round" stroke-linejoin="round"/>
    <circle cx="120" cy="82" r="34" fill="#6c63ff"/>
    <circle cx="120" cy="82" r="15" fill="#0a0a0f"/>
    <circle cx="108" cy="70" r="7" fill="#fff" opacity="0.75"/>
  </g>
</svg>
